# xmcd CD database file
#
# Track frame offsets:
#	150
#	16087
#	35730
#	54657
#	69060
#	88225
#	107842
#	127282
#	144197
#	165032
#	187075
#	215427
#	232975
#
# Disc length: 3668 seconds
#
# Revision: 2
# Processed by: cddbd v1.5PL3 Copyright (c) Steve Scherf et al.
# Submitted via: CDex 1.50
#
DISCID=ad0e520d
DTITLE=Third Eye Blind - Out Of The Vein
DYEAR=2003
DGENRE=Rock
TTITLE0=Faster
TTITLE1=Blinded
TTITLE2=Forget Myself
TTITLE3=Danger
TTITLE4=Crystal Baller
TTITLE5=My Hit And Run
TTITLE6=Misfits
TTITLE7=Can't Get Away
TTITLE8=Wake For Young Souls
TTITLE9=Palm Reader
TTITLE10=Self Righteous
TTITLE11=Company
TTITLE12=Good Man
EXTD=YEAR: 2003
EXTT0=
EXTT1=
EXTT2=
EXTT3=
EXTT4=
EXTT5=
EXTT6=
EXTT7=
EXTT8=
EXTT9=
EXTT10=
EXTT11=
EXTT12=
PLAYORDER=
